<svg version="1.1" xmlns="http://www.w3.org/2000/svg" xmlns:xlink="http://www.w3.org/1999/xlink" x="0px" y="0px" width="20px" height="11px" viewBox="0 0 21.3 13.23" enable-background="new 0 0 21.3 13.23" xml:space="preserve">
                                            <g><path fill="#229286" d="M6.39,0c1.6,0,2.75,0.47,3.45,1.41c0.4,0.56,0.6,1.22,0.6,1.98c0,0.84-0.22,1.49-0.66,1.95c-0.1,0.16-0.23,0.3-0.39,0.42S9.04,5.99,8.82,6.09c0.32,0.14,0.61,0.305,0.87,0.495c0.26,0.19,0.47,0.425,0.63,0.705c0.36,0.581,0.54,1.23,0.54,1.95c0,0.72-0.2,1.42-0.6,2.1c-0.28,0.42-0.6,0.76-0.96,1.02c-0.2,0.16-0.425,0.295-0.675,0.405c-0.25,0.11-0.515,0.215-0.795,0.315c-0.281,0.041-0.575,0.075-0.885,0.105C6.635,13.215,6.3,13.23,5.94,13.23H0V0H6.39z M7.26,4.86c0.36-0.2,0.54-0.58,0.54-1.14c0-0.6-0.24-1.01-0.72-1.23C6.859,2.43,6.63,2.38,6.39,2.34C6.15,2.3,5.86,2.28,5.52,2.28H3.03v2.91h2.82c0.3,0,0.56-0.03,0.78-0.09C6.85,5.04,7.06,4.96,7.26,4.86z M8.07,9.03c0-0.68-0.29-1.15-0.87-1.41c-0.14-0.1-0.32-0.16-0.54-0.18c-0.22-0.02-0.47-0.03-0.75-0.03H3.03v3.51h2.82c0.6,0,1.05-0.08,1.35-0.24C7.78,10.42,8.07,9.87,8.07,9.03z M13.2,4.38c0.84-0.86,1.97-1.29,3.39-1.29c0.8,0,1.54,0.14,2.22,0.42c0.319,0.16,0.615,0.35,0.885,0.57c0.27,0.22,0.515,0.5,0.735,0.84c0.18,0.3,0.335,0.61,0.465,0.93c0.13,0.32,0.225,0.67,0.285,1.05c0.04,0.22,0.07,0.485,0.09,0.795c0.02,0.31,0.03,0.665,0.03,1.065h-6.93c0,0.48,0.09,0.885,0.27,1.215c0.18,0.33,0.42,0.585,0.72,0.765c0.34,0.26,0.79,0.39,1.35,0.39c0.52,0,0.979-0.15,1.38-0.45c0.22-0.14,0.39-0.35,0.51-0.63h2.52c-0.06,0.58-0.36,1.15-0.9,1.71c-0.4,0.46-0.905,0.8-1.515,1.02c-0.61,0.22-1.295,0.33-2.055,0.33c-1.26,0-2.38-0.37-3.36-1.11c-0.94-0.799-1.41-2.08-1.41-3.84C11.88,6.561,12.319,5.3,13.2,4.38z M19.17,0.54v1.35h-5.28V0.54H19.17z M18.06,5.61c-0.44-0.32-0.93-0.48-1.47-0.48c-0.66,0-1.16,0.18-1.5,0.54c-0.32,0.38-0.54,0.87-0.66,1.47h4.26C18.63,6.521,18.42,6.01,18.06,5.61z"/></g>
                                        </svg>