<svg width="230.5" height="577.057" xmlns="http://www.w3.org/2000/svg">

 <g>
  <title>background</title>
  <rect fill="none" id="canvas_background" height="402" width="582" y="-1" x="-1"/>
 </g>
 <g>
  <title>Layer 1</title>
  <path id="svg_1" d="m93.599998,403.597992l38.638008,20.375l4.663986,2.459991l4.664001,-2.459991l38.637009,-20.373993l36.787994,19.39798l-4.664993,8.847015l-27.458008,-14.480011l-4.664993,-2.459991l-4.664001,2.459991l-38.637009,20.374023l-38.636993,-20.374023l-4.665001,-2.458984l-4.665001,2.458984l-38.637001,20.375l-36.787996,-19.399994l4.664999,-8.847015l27.458,14.480011l4.665001,2.459991l4.665001,-2.459991l38.636997,-20.373993m86.601997,-11.304993l-43.300995,22.834015l-43.301003,-22.834015l-43.301998,22.834015l-36.304002,-19.14502l-13.993999,26.537994l50.298,26.52301l43.301998,-22.833984l43.301994,22.834015l43.300995,-22.834015l36.304001,19.144989l13.994003,-26.536987l-50.298996,-26.524017l0,0z" fill="#229286"/>
  <path id="svg_2" d="m93.599998,467.605011l38.638008,20.373993l4.663986,2.460022l4.664001,-2.460022l38.637009,-20.373993l36.787994,19.39801l-4.664993,8.846985l-27.458008,-14.47998l-4.664993,-2.460022l-4.664001,2.460022l-38.637009,20.373993l-38.637993,-20.374023l-4.665001,-2.459991l-4.665001,2.459991l-38.636997,20.373993l-36.787001,-19.39798l4.664999,-8.847015l27.458,14.480011l4.665001,2.459991l4.665001,-2.459991l38.636997,-20.373993m86.601997,-11.305023l-43.300995,22.833984l-43.301003,-22.833984l-43.301998,22.833984l-36.304002,-19.144989l-13.993999,26.537018l50.298,26.52301l43.301998,-22.833008l43.301994,22.833984l43.300995,-22.833984l36.304001,19.144989l13.994003,-26.536987l-50.298996,-26.524017l0,0z" fill="#229286"/>
  <path id="svg_3" d="m93.599998,531.611023l38.638008,20.375l4.663986,2.460022l4.664001,-2.460022l38.637009,-20.374023l36.787994,19.39801l-4.664993,8.846985l-27.458008,-14.47998l-4.664993,-2.459961l-4.664001,2.459961l-38.637009,20.374023l-38.636993,-20.374023l-4.665001,-2.458984l-4.665001,2.458984l-38.637001,20.375l-36.787996,-19.398987l4.664999,-8.846985l27.458,14.47998l4.665001,2.460022l4.665001,-2.460022l38.636997,-20.375m86.601997,-11.304016l-43.300995,22.833984l-43.301003,-22.833984l-43.301998,22.833984l-36.304002,-19.144958l-13.993999,26.536987l50.298,26.52301l43.301998,-22.833008l43.301994,22.833984l43.300995,-22.833984l36.304001,19.14502l13.993011,-26.538025l-50.298004,-26.52301l0,0z" fill="#229286"/>
  <g id="svg_4">
   <rect id="svg_5" height="85.009" width="85.009" fill="#229286" transform="matrix(0.7071 0.7071 -0.7071 0.7071 246.2781 6.5355)" y="258.047" x="72.746"/>
  </g>
  <g id="svg_6">
   <rect id="svg_7" height="85.009" width="85.009" fill="#229286" transform="matrix(0.7071, 0.7071, -0.7071, 0.7071, 161.269, -28.6763)" y="138.534114" x="72.038886"/>
  </g>
  <g id="svg_8">
   <rect id="svg_9" height="85.009" width="85.009" fill="#229286" transform="matrix(0.7071, 0.7071, -0.7071, 0.7071, 76.2604, -63.8881)" y="16.898886" x="73.453114"/>
  </g>
 </g>
</svg>