<svg width="230.5" height="577.057" xmlns="http://www.w3.org/2000/svg">

 <g>
  <title>background</title>
  <rect fill="none" id="canvas_background" height="402" width="582" y="-1" x="-1"/>
 </g>
 <g>
  <title>Layer 1</title>
  <polygon id="svg_1" points="136.901,449.043 93.599,426.209 50.297,449.043 0,422.52 13.993,395.982 50.297,415.127   93.599,392.293 136.901,415.127 180.202,392.293 230.5,418.816 216.505,445.354 180.202,426.209 " fill="#229286"/>
  <polygon id="svg_2" points="136.901,513.05 93.599,490.216 50.297,513.05 0,486.526 13.993,459.989 50.297,479.134   93.599,456.3 136.901,479.134 180.202,456.3 230.5,482.823 216.505,509.36 180.202,490.216 " fill="#229286"/>
  <polygon id="svg_3" points="136.901,577.057 93.599,554.223 50.297,577.057 0,550.533 13.993,523.996 50.297,543.141   93.599,520.307 136.901,543.141 180.202,520.307 230.5,546.83 216.505,573.367 180.202,554.223 " fill="#229286"/>
  <path id="svg_4" d="m115.25,254.582993l45.968002,45.968002l-45.968002,45.968994l-45.968002,-45.967987l45.968002,-45.969009m0,-14.141998l-60.110001,60.110001l60.110001,60.110016l60.110001,-60.110016l-60.110001,-60.110001l0,0z" fill="#229286"/>
  <path id="svg_5" d="m115.25,134.363007l45.968002,45.968002l-45.968002,45.967987l-45.968002,-45.967987l45.968002,-45.968002m0,-14.142006l-60.110001,60.109993l60.110001,60.110001l60.110001,-60.110001l-60.110001,-60.109993l0,0z" fill="#229286"/>
  <path id="svg_6" d="m115.25,14.142l45.968002,45.968l-45.968002,45.968002l-45.969002,-45.968002l45.969002,-45.968m0,-14.142l-60.110001,60.110001l60.110001,60.110001l60.110001,-60.110001l-60.110001,-60.110001l0,0z" fill="#229286"/>
 </g>
</svg>